# xmcd
#
# Track frame offsets: 
#        150
#        23954
#        44508
#        64390
#        79420
#        109496
#        124160
#        138521
#        152718
#        171624
#        187323
#        203319
#
# Disc length: 2931 seconds
#
# Revision: 0
# Processed by: cddbd v1.5.2PL0 Copyright (c) Steve Scherf et al.
# Submitted via: ExactAudioCopy v0.99pb4
#
DISCID=b90b710c
DTITLE=The Chicago Kingsnakes - Blue Mosaic
DYEAR=2011
DGENRE=Blues
TTITLE0=Take Your Time
TTITLE1=Come Back Home
TTITLE2=Blues Gone Uptown
TTITLE3=Tell The Truth
TTITLE4=Sick and Tired
TTITLE5=So Cold In Chicago
TTITLE6=Hip the Gip
TTITLE7=Stop Drop and Roll
TTITLE8=Lefty
TTITLE9=You Don't Want My Lovin'
TTITLE10=Mary Jane-Acoustic
TTITLE11=Mary Janr-Electric
EXTD=
EXTT0=
EXTT1=
EXTT2=
EXTT3=
EXTT4=
EXTT5=
EXTT6=
EXTT7=
EXTT8=
EXTT9=
EXTT10=
EXTT11=
PLAYORDER=
